<?xml version="1.0" encoding="utf-8"?>
<!-- Generator: Adobe Illustrator 18.1.1, SVG Export Plug-In . SVG Version: 6.00 Build 0)  -->
<svg version="1.1" id="Layer_1" xmlns="http://www.w3.org/2000/svg" xmlns:xlink="http://www.w3.org/1999/xlink" x="0px" y="0px"
	 viewBox="0 0 497 251" enable-background="new 0 0 497 251" xml:space="preserve">
<g>
	<path d="M98,116.2c-17.1,0-33.3,0-50.3,0c0,37.6,0,75,0,112.7c-11.6,0-22.5,0-34.1,0c-0.1-1.6-0.2-3.2-0.2-4.8
		c0-50.7-0.2-101.3,0.2-152c0.1-8.2,1.7-16.7,4.5-24.4c6.3-17.4,19.5-27.4,37.7-30.5c12-2,23.9-0.6,35.7,1.8c3,0.6,4.1,2,4,5.1
		c-0.2,7.1-0.1,14.3-0.1,21.3c-7.8-0.6-15.2-1.5-22.6-1.7c-13.5-0.2-23.3,8.4-24.7,21.8C47.5,71.7,48,78.1,48,85.1
		c27.8,0,55.7,0,84.2,0c0,2.6,0,4.6,0,6.5c0,26.7-0.1,53.3,0.1,80c0,4.8,0.7,9.7,1.9,14.3c2.9,11,10.6,16.9,22.6,17.7
		c12.1,0.8,22.3-4.3,26.1-14.4c2.2-5.8,3.4-12.3,3.5-18.5c0.5-26.3,0.3-52.7,0.4-79c0-2,0-3.9,0-6.2c11.5,0,22.4,0,33.7,0
		c0.2,1.4,0.4,2.6,0.4,3.9c0,8,0,16,0,24c0,18.3,7.4,32.3,23.5,41.8c13,7.6,26.9,12.4,41.6,14.8c9.7,1.6,18.7,4.8,25.8,12.1
		c12.3,12.6,8.8,30.2-7.4,37.1c-16.6,7-34,1.7-43.7-13.3c-2.3-3.5-4.3-7.1-6.6-10.6c-3.3-5.2-7.6-9.2-13.5-11.3
		c-11.4-3.9-18.1-0.8-23.6,10c-3.3,6.5-7,13-11.7,18.4c-21.9,25.2-67.1,26.8-91.2,3.7c-10.1-9.7-15.3-21.9-15.7-35.7
		c-0.5-19.3-0.3-38.7-0.3-58C98,120.5,98,118.5,98,116.2z"/>
	<path d="M482.8,165.9c-32.1,0-63.7,0-95.2,0c-1.5,14.1,10.2,31.5,24.7,37.3c10.8,4.3,21.9,3.2,33.1,2.2c4.3-0.4,8.5-1.4,13.2-2.2
		c0,8.6,0,17,0,25.9c-11.9,3.3-24.3,4.6-36.7,3.4c-32.5-3.1-54.7-19.6-65.2-51.1c-4.9-14.7-15.3-25.2-29.4-31
		c-11-4.5-22.9-6.8-34.2-10.4c-7.6-2.4-15.7-4-22.3-8.1c-16-9.9-14.7-29.8,1.8-38.7c13.7-7.4,30.8-4.7,41.7,6.9
		c4.9,5.2,9.2,11,13.9,16.4c1.7,2,3.6,3.9,5.7,5.6c7.4,6,14.2,6.5,21.7,0.2c5.5-4.7,10.2-10.4,15-16c13.4-15.7,30.1-24.3,51-24.3
		c32.3,0.1,56.5,20.9,61.6,53C484.6,145,484.9,155.1,482.8,165.9z M387.2,140.9c23.2,0,46.4,0,69.6,0c-0.5-18-17.3-33.2-35.9-32.8
		C403.8,108.4,386.7,124.9,387.2,140.9z"/>
</g>
</svg>
